<mxfile host="65bd71144e">
    <diagram id="Tb_K03baV1KacLM0HXMZ" name="Página-1">
        <mxGraphModel dx="878" dy="760" grid="1" gridSize="10" guides="1" tooltips="1" connect="1" arrows="1" fold="1" page="1" pageScale="1" pageWidth="827" pageHeight="1169" background="none" math="0" shadow="0">
            <root>
                <mxCell id="0"/>
                <mxCell id="1" parent="0"/>
                <mxCell id="o0CeNQRTuvJZnmJhGboI-1" value="&lt;p style=&quot;box-sizing: border-box; margin-top: 0px; margin-bottom: 1rem; color: rgb(55, 58, 60); font-family: -apple-system, BlinkMacSystemFont, &amp;quot;Segoe UI&amp;quot;, Roboto, &amp;quot;Helvetica Neue&amp;quot;, Arial, sans-serif, &amp;quot;Apple Color Emoji&amp;quot;, &amp;quot;Segoe UI Emoji&amp;quot;, &amp;quot;Segoe UI Symbol&amp;quot;; font-size: 15px; text-align: left; background-color: rgb(255, 255, 255);&quot;&gt;3.&amp;nbsp;Elaborar el modelo entidad-relación para una Cadena Editorial:&lt;/p&gt;&lt;div style=&quot;box-sizing: border-box; color: rgb(55, 58, 60); font-family: -apple-system, BlinkMacSystemFont, &amp;quot;Segoe UI&amp;quot;, Roboto, &amp;quot;Helvetica Neue&amp;quot;, Arial, sans-serif, &amp;quot;Apple Color Emoji&amp;quot;, &amp;quot;Segoe UI Emoji&amp;quot;, &amp;quot;Segoe UI Symbol&amp;quot;; font-size: 15px; text-align: left; background-color: rgb(255, 255, 255); margin-left: 30px;&quot; class=&quot;editor-indent&quot;&gt;&lt;p style=&quot;box-sizing: border-box; margin-top: 0px; margin-bottom: 1rem;&quot;&gt;Tenemos esta información sobre una cadena editorial:&lt;/p&gt;&lt;/div&gt;&lt;p style=&quot;box-sizing: border-box; margin-top: 0px; margin-bottom: 1rem; color: rgb(55, 58, 60); font-family: -apple-system, BlinkMacSystemFont, &amp;quot;Segoe UI&amp;quot;, Roboto, &amp;quot;Helvetica Neue&amp;quot;, Arial, sans-serif, &amp;quot;Apple Color Emoji&amp;quot;, &amp;quot;Segoe UI Emoji&amp;quot;, &amp;quot;Segoe UI Symbol&amp;quot;; font-size: 15px; text-align: left; background-color: rgb(255, 255, 255);&quot;&gt;&lt;/p&gt;&lt;ol style=&quot;box-sizing: border-box; margin-top: 0px; margin-bottom: 1rem; color: rgb(55, 58, 60); font-family: -apple-system, BlinkMacSystemFont, &amp;quot;Segoe UI&amp;quot;, Roboto, &amp;quot;Helvetica Neue&amp;quot;, Arial, sans-serif, &amp;quot;Apple Color Emoji&amp;quot;, &amp;quot;Segoe UI Emoji&amp;quot;, &amp;quot;Segoe UI Symbol&amp;quot;; font-size: 15px; text-align: left; background-color: rgb(255, 255, 255); list-style-type: lower-alpha;&quot;&gt;&lt;li style=&quot;box-sizing: border-box;&quot;&gt;La editorial tiene varias sucursales, con su domicilio, teléfono y un código de sucursal.&lt;/li&gt;&lt;li style=&quot;box-sizing: border-box;&quot;&gt;Cada sucursal tiene varios empleados, de los cuales tendremos su nombre, apellidos, NIF y teléfono. Un empleado trabaja en una única sucursal.&lt;/li&gt;&lt;li style=&quot;box-sizing: border-box;&quot;&gt;En cada sucursal se publican varias revistas, de las que almacenaremos su título, número de registro, periodicidad y tipo.&lt;/li&gt;&lt;li style=&quot;box-sizing: border-box;&quot;&gt;Una revista puede ser publicada por varias sucursales.&lt;/li&gt;&lt;li style=&quot;box-sizing: border-box;&quot;&gt;La editorial tiene periodistas (que no trabajan en las sucursales) que pueden escribir artículos para varias revistas. Almacenaremos los mismos datos que para los empleados, añadiendo su especialidad.&lt;/li&gt;&lt;li style=&quot;box-sizing: border-box;&quot;&gt;También es necesario guardar las secciones fijas que tiene cada revista, que constan de un título y una extensión.&lt;/li&gt;&lt;li style=&quot;box-sizing: border-box;&quot;&gt;Para cada revista, almacenaremos información de cada ejemplar, que incluirá la fecha, número de páginas y el número de ejemplares vendidos.&lt;/li&gt;&lt;/ol&gt;" style="text;html=1;strokeColor=none;fillColor=none;align=center;verticalAlign=middle;whiteSpace=wrap;rounded=0;" parent="1" vertex="1">
                    <mxGeometry x="40" y="40" width="750" height="320" as="geometry"/>
                </mxCell>
                <mxCell id="NHu5QGEOyZsgcXKkyV4h-36" style="edgeStyle=orthogonalEdgeStyle;rounded=0;orthogonalLoop=1;jettySize=auto;html=1;exitX=1;exitY=0.5;exitDx=0;exitDy=0;entryX=0.5;entryY=0;entryDx=0;entryDy=0;endArrow=none;endFill=0;" parent="1" source="o0CeNQRTuvJZnmJhGboI-2" target="o0CeNQRTuvJZnmJhGboI-29" edge="1">
                    <mxGeometry relative="1" as="geometry"/>
                </mxCell>
                <mxCell id="o0CeNQRTuvJZnmJhGboI-2" value="sucursales" style="rounded=0;whiteSpace=wrap;html=1;fillColor=#1ba1e2;fontColor=#ffffff;strokeColor=#006EAF;" parent="1" vertex="1">
                    <mxGeometry x="40" y="360" width="120" height="60" as="geometry"/>
                </mxCell>
                <mxCell id="o0CeNQRTuvJZnmJhGboI-13" style="edgeStyle=orthogonalEdgeStyle;rounded=0;orthogonalLoop=1;jettySize=auto;html=1;exitX=0;exitY=0.5;exitDx=0;exitDy=0;entryX=0.75;entryY=1;entryDx=0;entryDy=0;endArrow=none;endFill=0;" parent="1" source="o0CeNQRTuvJZnmJhGboI-3" target="o0CeNQRTuvJZnmJhGboI-2" edge="1">
                    <mxGeometry relative="1" as="geometry"/>
                </mxCell>
                <mxCell id="o0CeNQRTuvJZnmJhGboI-3" value="id_sucursal" style="ellipse;whiteSpace=wrap;html=1;fillColor=#e3c800;fontColor=#000000;strokeColor=#B09500;" parent="1" vertex="1">
                    <mxGeometry x="150" y="435" width="120" height="30" as="geometry"/>
                </mxCell>
                <mxCell id="NHu5QGEOyZsgcXKkyV4h-9" style="edgeStyle=orthogonalEdgeStyle;rounded=0;orthogonalLoop=1;jettySize=auto;html=1;exitX=0;exitY=0.5;exitDx=0;exitDy=0;entryX=0.75;entryY=1;entryDx=0;entryDy=0;endArrow=none;endFill=0;" parent="1" source="o0CeNQRTuvJZnmJhGboI-4" target="o0CeNQRTuvJZnmJhGboI-2" edge="1">
                    <mxGeometry relative="1" as="geometry"/>
                </mxCell>
                <mxCell id="o0CeNQRTuvJZnmJhGboI-4" value="cod_sucursal" style="ellipse;whiteSpace=wrap;html=1;fillColor=#e3c800;fontColor=#000000;strokeColor=#B09500;" parent="1" vertex="1">
                    <mxGeometry x="150" y="475" width="120" height="30" as="geometry"/>
                </mxCell>
                <mxCell id="o0CeNQRTuvJZnmJhGboI-15" style="edgeStyle=orthogonalEdgeStyle;rounded=0;orthogonalLoop=1;jettySize=auto;html=1;exitX=0;exitY=0.5;exitDx=0;exitDy=0;entryX=0.75;entryY=1;entryDx=0;entryDy=0;endArrow=none;endFill=0;" parent="1" source="o0CeNQRTuvJZnmJhGboI-5" target="o0CeNQRTuvJZnmJhGboI-2" edge="1">
                    <mxGeometry relative="1" as="geometry"/>
                </mxCell>
                <mxCell id="o0CeNQRTuvJZnmJhGboI-5" value="domicilio_sucursal" style="ellipse;whiteSpace=wrap;html=1;fillColor=#e3c800;fontColor=#000000;strokeColor=#B09500;" parent="1" vertex="1">
                    <mxGeometry x="150" y="515" width="120" height="30" as="geometry"/>
                </mxCell>
                <mxCell id="o0CeNQRTuvJZnmJhGboI-16" style="edgeStyle=orthogonalEdgeStyle;rounded=0;orthogonalLoop=1;jettySize=auto;html=1;exitX=0;exitY=0.5;exitDx=0;exitDy=0;entryX=0.75;entryY=1;entryDx=0;entryDy=0;endArrow=none;endFill=0;" parent="1" source="o0CeNQRTuvJZnmJhGboI-6" target="o0CeNQRTuvJZnmJhGboI-2" edge="1">
                    <mxGeometry relative="1" as="geometry"/>
                </mxCell>
                <mxCell id="o0CeNQRTuvJZnmJhGboI-6" value="tlf_sucursal" style="ellipse;whiteSpace=wrap;html=1;fillColor=#e3c800;fontColor=#000000;strokeColor=#B09500;" parent="1" vertex="1">
                    <mxGeometry x="150" y="555" width="120" height="30" as="geometry"/>
                </mxCell>
                <mxCell id="o0CeNQRTuvJZnmJhGboI-24" style="edgeStyle=orthogonalEdgeStyle;rounded=0;orthogonalLoop=1;jettySize=auto;html=1;exitX=1;exitY=0.5;exitDx=0;exitDy=0;entryX=0;entryY=0.5;entryDx=0;entryDy=0;endArrow=none;endFill=0;" parent="1" source="o0CeNQRTuvJZnmJhGboI-9" target="o0CeNQRTuvJZnmJhGboI-19" edge="1">
                    <mxGeometry relative="1" as="geometry"/>
                </mxCell>
                <mxCell id="o0CeNQRTuvJZnmJhGboI-9" value="empleados" style="rounded=0;whiteSpace=wrap;html=1;fillColor=#1ba1e2;fontColor=#ffffff;strokeColor=#006EAF;" parent="1" vertex="1">
                    <mxGeometry x="40" y="775" width="120" height="60" as="geometry"/>
                </mxCell>
                <mxCell id="o0CeNQRTuvJZnmJhGboI-33" style="edgeStyle=orthogonalEdgeStyle;rounded=0;orthogonalLoop=1;jettySize=auto;html=1;exitX=0.5;exitY=0;exitDx=0;exitDy=0;endArrow=none;endFill=0;entryX=0.25;entryY=1;entryDx=0;entryDy=0;" parent="1" source="o0CeNQRTuvJZnmJhGboI-10" target="o0CeNQRTuvJZnmJhGboI-2" edge="1">
                    <mxGeometry relative="1" as="geometry"/>
                </mxCell>
                <mxCell id="o0CeNQRTuvJZnmJhGboI-34" style="edgeStyle=orthogonalEdgeStyle;rounded=0;orthogonalLoop=1;jettySize=auto;html=1;exitX=0.5;exitY=1;exitDx=0;exitDy=0;endArrow=none;endFill=0;entryX=0.25;entryY=0;entryDx=0;entryDy=0;" parent="1" source="o0CeNQRTuvJZnmJhGboI-10" target="o0CeNQRTuvJZnmJhGboI-9" edge="1">
                    <mxGeometry relative="1" as="geometry">
                        <mxPoint x="70" y="770" as="targetPoint"/>
                    </mxGeometry>
                </mxCell>
                <mxCell id="o0CeNQRTuvJZnmJhGboI-10" value="trabajan" style="rhombus;whiteSpace=wrap;html=1;fillColor=#60a917;fontColor=#ffffff;strokeColor=#2D7600;" parent="1" vertex="1">
                    <mxGeometry x="30" y="580" width="80" height="80" as="geometry"/>
                </mxCell>
                <mxCell id="o0CeNQRTuvJZnmJhGboI-19" value="id_empleado" style="ellipse;whiteSpace=wrap;html=1;fillColor=#e3c800;fontColor=#000000;strokeColor=#B09500;" parent="1" vertex="1">
                    <mxGeometry x="200" y="790" width="120" height="30" as="geometry"/>
                </mxCell>
                <mxCell id="o0CeNQRTuvJZnmJhGboI-25" style="edgeStyle=orthogonalEdgeStyle;rounded=0;orthogonalLoop=1;jettySize=auto;html=1;exitX=0;exitY=0.5;exitDx=0;exitDy=0;entryX=1;entryY=0.5;entryDx=0;entryDy=0;endArrow=none;endFill=0;" parent="1" source="o0CeNQRTuvJZnmJhGboI-20" target="o0CeNQRTuvJZnmJhGboI-9" edge="1">
                    <mxGeometry relative="1" as="geometry"/>
                </mxCell>
                <mxCell id="o0CeNQRTuvJZnmJhGboI-20" value="nombre_empleado" style="ellipse;whiteSpace=wrap;html=1;fillColor=#e3c800;fontColor=#000000;strokeColor=#B09500;" parent="1" vertex="1">
                    <mxGeometry x="200" y="840" width="120" height="30" as="geometry"/>
                </mxCell>
                <mxCell id="o0CeNQRTuvJZnmJhGboI-26" style="edgeStyle=orthogonalEdgeStyle;rounded=0;orthogonalLoop=1;jettySize=auto;html=1;exitX=0;exitY=0.5;exitDx=0;exitDy=0;endArrow=none;endFill=0;entryX=1;entryY=0.5;entryDx=0;entryDy=0;" parent="1" source="o0CeNQRTuvJZnmJhGboI-21" target="o0CeNQRTuvJZnmJhGboI-9" edge="1">
                    <mxGeometry relative="1" as="geometry"/>
                </mxCell>
                <mxCell id="o0CeNQRTuvJZnmJhGboI-21" value="apellido_empleado" style="ellipse;whiteSpace=wrap;html=1;fillColor=#e3c800;fontColor=#000000;strokeColor=#B09500;" parent="1" vertex="1">
                    <mxGeometry x="200" y="890" width="120" height="30" as="geometry"/>
                </mxCell>
                <mxCell id="o0CeNQRTuvJZnmJhGboI-27" style="edgeStyle=orthogonalEdgeStyle;rounded=0;orthogonalLoop=1;jettySize=auto;html=1;exitX=0;exitY=0.5;exitDx=0;exitDy=0;entryX=1;entryY=0.5;entryDx=0;entryDy=0;endArrow=none;endFill=0;" parent="1" source="o0CeNQRTuvJZnmJhGboI-22" target="o0CeNQRTuvJZnmJhGboI-9" edge="1">
                    <mxGeometry relative="1" as="geometry"/>
                </mxCell>
                <mxCell id="o0CeNQRTuvJZnmJhGboI-22" value="nif_empleado" style="ellipse;whiteSpace=wrap;html=1;fillColor=#e3c800;fontColor=#000000;strokeColor=#B09500;" parent="1" vertex="1">
                    <mxGeometry x="200" y="940" width="120" height="30" as="geometry"/>
                </mxCell>
                <mxCell id="o0CeNQRTuvJZnmJhGboI-28" style="edgeStyle=orthogonalEdgeStyle;rounded=0;orthogonalLoop=1;jettySize=auto;html=1;exitX=0;exitY=0.5;exitDx=0;exitDy=0;entryX=1;entryY=0.5;entryDx=0;entryDy=0;endArrow=none;endFill=0;" parent="1" source="o0CeNQRTuvJZnmJhGboI-23" target="o0CeNQRTuvJZnmJhGboI-9" edge="1">
                    <mxGeometry relative="1" as="geometry"/>
                </mxCell>
                <mxCell id="o0CeNQRTuvJZnmJhGboI-23" value="tlf_empleado" style="ellipse;whiteSpace=wrap;html=1;fillColor=#e3c800;fontColor=#000000;strokeColor=#B09500;" parent="1" vertex="1">
                    <mxGeometry x="200" y="990" width="120" height="30" as="geometry"/>
                </mxCell>
                <mxCell id="NHu5QGEOyZsgcXKkyV4h-7" style="edgeStyle=orthogonalEdgeStyle;rounded=0;orthogonalLoop=1;jettySize=auto;html=1;exitX=1;exitY=0.5;exitDx=0;exitDy=0;endArrow=none;endFill=0;entryX=0;entryY=0.5;entryDx=0;entryDy=0;" parent="1" source="o0CeNQRTuvJZnmJhGboI-29" target="o0CeNQRTuvJZnmJhGboI-30" edge="1">
                    <mxGeometry relative="1" as="geometry"/>
                </mxCell>
                <mxCell id="o0CeNQRTuvJZnmJhGboI-29" value="publican" style="rhombus;whiteSpace=wrap;html=1;fillColor=#60a917;fontColor=#ffffff;strokeColor=#2D7600;" parent="1" vertex="1">
                    <mxGeometry x="310" y="640" width="80" height="80" as="geometry"/>
                </mxCell>
                <mxCell id="NHu5QGEOyZsgcXKkyV4h-19" style="edgeStyle=orthogonalEdgeStyle;rounded=0;orthogonalLoop=1;jettySize=auto;html=1;exitX=0.5;exitY=1;exitDx=0;exitDy=0;entryX=0.5;entryY=0;entryDx=0;entryDy=0;endArrow=none;endFill=0;" parent="1" source="o0CeNQRTuvJZnmJhGboI-30" target="NHu5QGEOyZsgcXKkyV4h-11" edge="1">
                    <mxGeometry relative="1" as="geometry"/>
                </mxCell>
                <mxCell id="o0CeNQRTuvJZnmJhGboI-30" value="revistas" style="rounded=0;whiteSpace=wrap;html=1;fillColor=#1ba1e2;fontColor=#ffffff;strokeColor=#006EAF;" parent="1" vertex="1">
                    <mxGeometry x="430" y="800" width="120" height="60" as="geometry"/>
                </mxCell>
                <mxCell id="NHu5QGEOyZsgcXKkyV4h-3" style="edgeStyle=orthogonalEdgeStyle;rounded=0;orthogonalLoop=1;jettySize=auto;html=1;exitX=0.5;exitY=1;exitDx=0;exitDy=0;endArrow=none;endFill=0;" parent="1" source="o0CeNQRTuvJZnmJhGboI-32" target="o0CeNQRTuvJZnmJhGboI-40" edge="1">
                    <mxGeometry relative="1" as="geometry"/>
                </mxCell>
                <mxCell id="o0CeNQRTuvJZnmJhGboI-32" value="periodistas" style="rounded=0;whiteSpace=wrap;html=1;fillColor=#1ba1e2;fontColor=#ffffff;strokeColor=#006EAF;" parent="1" vertex="1">
                    <mxGeometry x="430" y="360" width="120" height="60" as="geometry"/>
                </mxCell>
                <mxCell id="o0CeNQRTuvJZnmJhGboI-55" style="edgeStyle=orthogonalEdgeStyle;rounded=0;orthogonalLoop=1;jettySize=auto;html=1;exitX=0;exitY=0.5;exitDx=0;exitDy=0;entryX=1;entryY=0.5;entryDx=0;entryDy=0;endArrow=none;endFill=0;" parent="1" source="o0CeNQRTuvJZnmJhGboI-35" target="o0CeNQRTuvJZnmJhGboI-30" edge="1">
                    <mxGeometry relative="1" as="geometry"/>
                </mxCell>
                <mxCell id="o0CeNQRTuvJZnmJhGboI-35" value="id_revista" style="ellipse;whiteSpace=wrap;html=1;fillColor=#e3c800;fontColor=#000000;strokeColor=#B09500;" parent="1" vertex="1">
                    <mxGeometry x="670" y="730" width="120" height="30" as="geometry"/>
                </mxCell>
                <mxCell id="o0CeNQRTuvJZnmJhGboI-56" style="edgeStyle=orthogonalEdgeStyle;rounded=0;orthogonalLoop=1;jettySize=auto;html=1;exitX=0;exitY=0.5;exitDx=0;exitDy=0;endArrow=none;endFill=0;entryX=1;entryY=0.5;entryDx=0;entryDy=0;" parent="1" source="o0CeNQRTuvJZnmJhGboI-36" target="o0CeNQRTuvJZnmJhGboI-30" edge="1">
                    <mxGeometry relative="1" as="geometry"/>
                </mxCell>
                <mxCell id="o0CeNQRTuvJZnmJhGboI-36" value="titulo" style="ellipse;whiteSpace=wrap;html=1;fillColor=#e3c800;fontColor=#000000;strokeColor=#B09500;" parent="1" vertex="1">
                    <mxGeometry x="670" y="765" width="120" height="30" as="geometry"/>
                </mxCell>
                <mxCell id="o0CeNQRTuvJZnmJhGboI-57" style="edgeStyle=orthogonalEdgeStyle;rounded=0;orthogonalLoop=1;jettySize=auto;html=1;exitX=0;exitY=0.5;exitDx=0;exitDy=0;entryX=1;entryY=0.5;entryDx=0;entryDy=0;endArrow=none;endFill=0;" parent="1" source="o0CeNQRTuvJZnmJhGboI-37" target="o0CeNQRTuvJZnmJhGboI-30" edge="1">
                    <mxGeometry relative="1" as="geometry"/>
                </mxCell>
                <mxCell id="o0CeNQRTuvJZnmJhGboI-37" value="nro_registro" style="ellipse;whiteSpace=wrap;html=1;fillColor=#e3c800;fontColor=#000000;strokeColor=#B09500;" parent="1" vertex="1">
                    <mxGeometry x="670" y="805" width="120" height="30" as="geometry"/>
                </mxCell>
                <mxCell id="o0CeNQRTuvJZnmJhGboI-58" style="edgeStyle=orthogonalEdgeStyle;rounded=0;orthogonalLoop=1;jettySize=auto;html=1;exitX=0;exitY=0.5;exitDx=0;exitDy=0;entryX=1;entryY=0.5;entryDx=0;entryDy=0;endArrow=none;endFill=0;" parent="1" source="o0CeNQRTuvJZnmJhGboI-38" target="o0CeNQRTuvJZnmJhGboI-30" edge="1">
                    <mxGeometry relative="1" as="geometry"/>
                </mxCell>
                <mxCell id="o0CeNQRTuvJZnmJhGboI-38" value="periodicidad" style="ellipse;whiteSpace=wrap;html=1;fillColor=#e3c800;fontColor=#000000;strokeColor=#B09500;" parent="1" vertex="1">
                    <mxGeometry x="670" y="845" width="120" height="30" as="geometry"/>
                </mxCell>
                <mxCell id="o0CeNQRTuvJZnmJhGboI-59" style="edgeStyle=orthogonalEdgeStyle;rounded=0;orthogonalLoop=1;jettySize=auto;html=1;exitX=0;exitY=0.5;exitDx=0;exitDy=0;entryX=1;entryY=0.5;entryDx=0;entryDy=0;endArrow=none;endFill=0;" parent="1" source="o0CeNQRTuvJZnmJhGboI-39" target="o0CeNQRTuvJZnmJhGboI-30" edge="1">
                    <mxGeometry relative="1" as="geometry"/>
                </mxCell>
                <mxCell id="o0CeNQRTuvJZnmJhGboI-39" value="tipo" style="ellipse;whiteSpace=wrap;html=1;fillColor=#e3c800;fontColor=#000000;strokeColor=#B09500;" parent="1" vertex="1">
                    <mxGeometry x="670" y="885" width="120" height="30" as="geometry"/>
                </mxCell>
                <mxCell id="NHu5QGEOyZsgcXKkyV4h-4" style="edgeStyle=orthogonalEdgeStyle;rounded=0;orthogonalLoop=1;jettySize=auto;html=1;exitX=0.5;exitY=1;exitDx=0;exitDy=0;entryX=0.5;entryY=0;entryDx=0;entryDy=0;endArrow=none;endFill=0;" parent="1" source="o0CeNQRTuvJZnmJhGboI-40" target="NHu5QGEOyZsgcXKkyV4h-1" edge="1">
                    <mxGeometry relative="1" as="geometry"/>
                </mxCell>
                <mxCell id="o0CeNQRTuvJZnmJhGboI-40" value="escriben" style="rhombus;whiteSpace=wrap;html=1;fillColor=#60a917;fontColor=#ffffff;strokeColor=#2D7600;" parent="1" vertex="1">
                    <mxGeometry x="450" y="470" width="80" height="80" as="geometry"/>
                </mxCell>
                <mxCell id="o0CeNQRTuvJZnmJhGboI-49" style="edgeStyle=orthogonalEdgeStyle;rounded=0;orthogonalLoop=1;jettySize=auto;html=1;exitX=0;exitY=0.5;exitDx=0;exitDy=0;entryX=1;entryY=0.5;entryDx=0;entryDy=0;endArrow=none;endFill=0;" parent="1" source="o0CeNQRTuvJZnmJhGboI-41" target="o0CeNQRTuvJZnmJhGboI-32" edge="1">
                    <mxGeometry relative="1" as="geometry"/>
                </mxCell>
                <mxCell id="o0CeNQRTuvJZnmJhGboI-41" value="id_periodista" style="ellipse;whiteSpace=wrap;html=1;fillColor=#e3c800;fontColor=#000000;strokeColor=#B09500;" parent="1" vertex="1">
                    <mxGeometry x="660" y="360" width="120" height="30" as="geometry"/>
                </mxCell>
                <mxCell id="o0CeNQRTuvJZnmJhGboI-50" style="edgeStyle=orthogonalEdgeStyle;rounded=0;orthogonalLoop=1;jettySize=auto;html=1;exitX=0;exitY=0.5;exitDx=0;exitDy=0;entryX=1;entryY=0.5;entryDx=0;entryDy=0;endArrow=none;endFill=0;" parent="1" source="o0CeNQRTuvJZnmJhGboI-42" target="o0CeNQRTuvJZnmJhGboI-32" edge="1">
                    <mxGeometry relative="1" as="geometry"/>
                </mxCell>
                <mxCell id="o0CeNQRTuvJZnmJhGboI-42" value="nombre_periodista" style="ellipse;whiteSpace=wrap;html=1;fillColor=#e3c800;fontColor=#000000;strokeColor=#B09500;" parent="1" vertex="1">
                    <mxGeometry x="660" y="405" width="120" height="30" as="geometry"/>
                </mxCell>
                <mxCell id="o0CeNQRTuvJZnmJhGboI-51" style="edgeStyle=orthogonalEdgeStyle;rounded=0;orthogonalLoop=1;jettySize=auto;html=1;exitX=0;exitY=0.5;exitDx=0;exitDy=0;entryX=1;entryY=0.5;entryDx=0;entryDy=0;endArrow=none;endFill=0;" parent="1" source="o0CeNQRTuvJZnmJhGboI-43" target="o0CeNQRTuvJZnmJhGboI-32" edge="1">
                    <mxGeometry relative="1" as="geometry"/>
                </mxCell>
                <mxCell id="o0CeNQRTuvJZnmJhGboI-43" value="apellido_periodista" style="ellipse;whiteSpace=wrap;html=1;fillColor=#e3c800;fontColor=#000000;strokeColor=#B09500;" parent="1" vertex="1">
                    <mxGeometry x="660" y="445" width="120" height="30" as="geometry"/>
                </mxCell>
                <mxCell id="o0CeNQRTuvJZnmJhGboI-52" style="edgeStyle=orthogonalEdgeStyle;rounded=0;orthogonalLoop=1;jettySize=auto;html=1;exitX=0;exitY=0.5;exitDx=0;exitDy=0;entryX=1;entryY=0.5;entryDx=0;entryDy=0;endArrow=none;endFill=0;" parent="1" source="o0CeNQRTuvJZnmJhGboI-44" target="o0CeNQRTuvJZnmJhGboI-32" edge="1">
                    <mxGeometry relative="1" as="geometry"/>
                </mxCell>
                <mxCell id="o0CeNQRTuvJZnmJhGboI-44" value="nif_periodista" style="ellipse;whiteSpace=wrap;html=1;fillColor=#e3c800;fontColor=#000000;strokeColor=#B09500;" parent="1" vertex="1">
                    <mxGeometry x="660" y="480" width="120" height="30" as="geometry"/>
                </mxCell>
                <mxCell id="o0CeNQRTuvJZnmJhGboI-53" style="edgeStyle=orthogonalEdgeStyle;rounded=0;orthogonalLoop=1;jettySize=auto;html=1;exitX=0;exitY=0.5;exitDx=0;exitDy=0;entryX=1;entryY=0.5;entryDx=0;entryDy=0;endArrow=none;endFill=0;" parent="1" source="o0CeNQRTuvJZnmJhGboI-45" target="o0CeNQRTuvJZnmJhGboI-32" edge="1">
                    <mxGeometry relative="1" as="geometry"/>
                </mxCell>
                <mxCell id="o0CeNQRTuvJZnmJhGboI-45" value="tlf_periodista" style="ellipse;whiteSpace=wrap;html=1;fillColor=#e3c800;fontColor=#000000;strokeColor=#B09500;" parent="1" vertex="1">
                    <mxGeometry x="660" y="525" width="120" height="30" as="geometry"/>
                </mxCell>
                <mxCell id="o0CeNQRTuvJZnmJhGboI-54" style="edgeStyle=orthogonalEdgeStyle;rounded=0;orthogonalLoop=1;jettySize=auto;html=1;exitX=0;exitY=0.5;exitDx=0;exitDy=0;entryX=1;entryY=0.5;entryDx=0;entryDy=0;endArrow=none;endFill=0;" parent="1" source="o0CeNQRTuvJZnmJhGboI-46" target="o0CeNQRTuvJZnmJhGboI-32" edge="1">
                    <mxGeometry relative="1" as="geometry"/>
                </mxCell>
                <mxCell id="o0CeNQRTuvJZnmJhGboI-46" value="especialidad" style="ellipse;whiteSpace=wrap;html=1;fillColor=#e3c800;fontColor=#000000;strokeColor=#B09500;" parent="1" vertex="1">
                    <mxGeometry x="660" y="565" width="120" height="30" as="geometry"/>
                </mxCell>
                <mxCell id="NHu5QGEOyZsgcXKkyV4h-1" value="articulos" style="rounded=0;whiteSpace=wrap;html=1;fillColor=#1ba1e2;fontColor=#ffffff;strokeColor=#006EAF;" parent="1" vertex="1">
                    <mxGeometry x="430" y="595" width="120" height="60" as="geometry"/>
                </mxCell>
                <mxCell id="NHu5QGEOyZsgcXKkyV4h-5" style="edgeStyle=orthogonalEdgeStyle;rounded=0;orthogonalLoop=1;jettySize=auto;html=1;exitX=0.5;exitY=0;exitDx=0;exitDy=0;entryX=0.5;entryY=1;entryDx=0;entryDy=0;endArrow=none;endFill=0;" parent="1" source="NHu5QGEOyZsgcXKkyV4h-2" target="NHu5QGEOyZsgcXKkyV4h-1" edge="1">
                    <mxGeometry relative="1" as="geometry"/>
                </mxCell>
                <mxCell id="NHu5QGEOyZsgcXKkyV4h-6" style="edgeStyle=orthogonalEdgeStyle;rounded=0;orthogonalLoop=1;jettySize=auto;html=1;exitX=0.5;exitY=1;exitDx=0;exitDy=0;endArrow=none;endFill=0;" parent="1" source="NHu5QGEOyZsgcXKkyV4h-2" target="o0CeNQRTuvJZnmJhGboI-30" edge="1">
                    <mxGeometry relative="1" as="geometry"/>
                </mxCell>
                <mxCell id="NHu5QGEOyZsgcXKkyV4h-2" value="aparecen" style="rhombus;whiteSpace=wrap;html=1;fillColor=#60a917;fontColor=#ffffff;strokeColor=#2D7600;" parent="1" vertex="1">
                    <mxGeometry x="450" y="695" width="80" height="80" as="geometry"/>
                </mxCell>
                <mxCell id="NHu5QGEOyZsgcXKkyV4h-20" style="edgeStyle=orthogonalEdgeStyle;rounded=0;orthogonalLoop=1;jettySize=auto;html=1;exitX=0.5;exitY=1;exitDx=0;exitDy=0;entryX=0.5;entryY=0;entryDx=0;entryDy=0;endArrow=none;endFill=0;" parent="1" source="NHu5QGEOyZsgcXKkyV4h-11" target="NHu5QGEOyZsgcXKkyV4h-12" edge="1">
                    <mxGeometry relative="1" as="geometry"/>
                </mxCell>
                <mxCell id="NHu5QGEOyZsgcXKkyV4h-11" value="contienen" style="rhombus;whiteSpace=wrap;html=1;fillColor=#60a917;fontColor=#ffffff;strokeColor=#2D7600;" parent="1" vertex="1">
                    <mxGeometry x="450" y="880" width="80" height="80" as="geometry"/>
                </mxCell>
                <mxCell id="NHu5QGEOyZsgcXKkyV4h-16" style="edgeStyle=orthogonalEdgeStyle;rounded=0;orthogonalLoop=1;jettySize=auto;html=1;exitX=1;exitY=0.5;exitDx=0;exitDy=0;entryX=0;entryY=0.5;entryDx=0;entryDy=0;endArrow=none;endFill=0;" parent="1" source="NHu5QGEOyZsgcXKkyV4h-12" target="NHu5QGEOyZsgcXKkyV4h-14" edge="1">
                    <mxGeometry relative="1" as="geometry"/>
                </mxCell>
                <mxCell id="NHu5QGEOyZsgcXKkyV4h-12" value="secciones" style="rounded=0;whiteSpace=wrap;html=1;fillColor=#1ba1e2;fontColor=#ffffff;strokeColor=#006EAF;" parent="1" vertex="1">
                    <mxGeometry x="430" y="990" width="120" height="60" as="geometry"/>
                </mxCell>
                <mxCell id="NHu5QGEOyZsgcXKkyV4h-17" style="edgeStyle=orthogonalEdgeStyle;rounded=0;orthogonalLoop=1;jettySize=auto;html=1;exitX=0;exitY=0.5;exitDx=0;exitDy=0;endArrow=none;endFill=0;" parent="1" source="NHu5QGEOyZsgcXKkyV4h-13" target="NHu5QGEOyZsgcXKkyV4h-12" edge="1">
                    <mxGeometry relative="1" as="geometry"/>
                </mxCell>
                <mxCell id="NHu5QGEOyZsgcXKkyV4h-13" value="ext_seccion" style="ellipse;whiteSpace=wrap;html=1;fillColor=#e3c800;fontColor=#000000;strokeColor=#B09500;" parent="1" vertex="1">
                    <mxGeometry x="670" y="1040" width="120" height="30" as="geometry"/>
                </mxCell>
                <mxCell id="NHu5QGEOyZsgcXKkyV4h-14" value="titulo_seccion" style="ellipse;whiteSpace=wrap;html=1;fillColor=#e3c800;fontColor=#000000;strokeColor=#B09500;" parent="1" vertex="1">
                    <mxGeometry x="670" y="1005" width="120" height="30" as="geometry"/>
                </mxCell>
                <mxCell id="NHu5QGEOyZsgcXKkyV4h-18" style="edgeStyle=orthogonalEdgeStyle;rounded=0;orthogonalLoop=1;jettySize=auto;html=1;exitX=0;exitY=0.5;exitDx=0;exitDy=0;entryX=1;entryY=0.5;entryDx=0;entryDy=0;endArrow=none;endFill=0;" parent="1" source="NHu5QGEOyZsgcXKkyV4h-15" target="NHu5QGEOyZsgcXKkyV4h-12" edge="1">
                    <mxGeometry relative="1" as="geometry"/>
                </mxCell>
                <mxCell id="NHu5QGEOyZsgcXKkyV4h-15" value="id_seccion" style="ellipse;whiteSpace=wrap;html=1;fillColor=#e3c800;fontColor=#000000;strokeColor=#B09500;" parent="1" vertex="1">
                    <mxGeometry x="670" y="970" width="120" height="30" as="geometry"/>
                </mxCell>
                <mxCell id="NHu5QGEOyZsgcXKkyV4h-35" style="edgeStyle=orthogonalEdgeStyle;rounded=0;orthogonalLoop=1;jettySize=auto;html=1;exitX=1;exitY=0.5;exitDx=0;exitDy=0;entryX=0;entryY=0.5;entryDx=0;entryDy=0;endArrow=none;endFill=0;" parent="1" source="NHu5QGEOyZsgcXKkyV4h-21" target="o0CeNQRTuvJZnmJhGboI-29" edge="1">
                    <mxGeometry relative="1" as="geometry"/>
                </mxCell>
                <mxCell id="NHu5QGEOyZsgcXKkyV4h-21" value="ejemp_vendidos" style="ellipse;whiteSpace=wrap;html=1;fillColor=#e3c800;fontColor=#000000;strokeColor=#B09500;" parent="1" vertex="1">
                    <mxGeometry x="150" y="720" width="120" height="30" as="geometry"/>
                </mxCell>
                <mxCell id="NHu5QGEOyZsgcXKkyV4h-34" style="edgeStyle=orthogonalEdgeStyle;rounded=0;orthogonalLoop=1;jettySize=auto;html=1;exitX=1;exitY=0.5;exitDx=0;exitDy=0;entryX=0;entryY=0.5;entryDx=0;entryDy=0;endArrow=none;endFill=0;" parent="1" source="NHu5QGEOyZsgcXKkyV4h-22" target="o0CeNQRTuvJZnmJhGboI-29" edge="1">
                    <mxGeometry relative="1" as="geometry"/>
                </mxCell>
                <mxCell id="NHu5QGEOyZsgcXKkyV4h-22" value="paginas" style="ellipse;whiteSpace=wrap;html=1;fillColor=#e3c800;fontColor=#000000;strokeColor=#B09500;" parent="1" vertex="1">
                    <mxGeometry x="150" y="685" width="120" height="30" as="geometry"/>
                </mxCell>
                <mxCell id="NHu5QGEOyZsgcXKkyV4h-33" style="edgeStyle=orthogonalEdgeStyle;rounded=0;orthogonalLoop=1;jettySize=auto;html=1;exitX=1;exitY=0.5;exitDx=0;exitDy=0;entryX=0;entryY=0.5;entryDx=0;entryDy=0;endArrow=none;endFill=0;" parent="1" source="NHu5QGEOyZsgcXKkyV4h-23" target="o0CeNQRTuvJZnmJhGboI-29" edge="1">
                    <mxGeometry relative="1" as="geometry"/>
                </mxCell>
                <mxCell id="NHu5QGEOyZsgcXKkyV4h-23" value="fecha_publicacion" style="ellipse;whiteSpace=wrap;html=1;fillColor=#e3c800;fontColor=#000000;strokeColor=#B09500;" parent="1" vertex="1">
                    <mxGeometry x="150" y="650" width="120" height="30" as="geometry"/>
                </mxCell>
                <mxCell id="NHu5QGEOyZsgcXKkyV4h-32" style="edgeStyle=orthogonalEdgeStyle;rounded=0;orthogonalLoop=1;jettySize=auto;html=1;exitX=1;exitY=0.5;exitDx=0;exitDy=0;entryX=0;entryY=0.5;entryDx=0;entryDy=0;endArrow=none;endFill=0;" parent="1" source="NHu5QGEOyZsgcXKkyV4h-24" target="o0CeNQRTuvJZnmJhGboI-29" edge="1">
                    <mxGeometry relative="1" as="geometry"/>
                </mxCell>
                <mxCell id="NHu5QGEOyZsgcXKkyV4h-24" value="id_publicacion" style="ellipse;whiteSpace=wrap;html=1;fillColor=#e3c800;fontColor=#000000;strokeColor=#B09500;" parent="1" vertex="1">
                    <mxGeometry x="150" y="610" width="120" height="30" as="geometry"/>
                </mxCell>
                <mxCell id="NHu5QGEOyZsgcXKkyV4h-40" value="1:M" style="text;html=1;strokeColor=none;fillColor=none;align=center;verticalAlign=middle;whiteSpace=wrap;rounded=0;" parent="1" vertex="1">
                    <mxGeometry x="490" y="570" width="60" height="30" as="geometry"/>
                </mxCell>
                <mxCell id="NHu5QGEOyZsgcXKkyV4h-41" value="1:M" style="text;html=1;strokeColor=none;fillColor=none;align=center;verticalAlign=middle;whiteSpace=wrap;rounded=0;" parent="1" vertex="1">
                    <mxGeometry x="490" y="420" width="60" height="30" as="geometry"/>
                </mxCell>
                <mxCell id="NHu5QGEOyZsgcXKkyV4h-42" value="1:M" style="text;html=1;strokeColor=none;fillColor=none;align=center;verticalAlign=middle;whiteSpace=wrap;rounded=0;" parent="1" vertex="1">
                    <mxGeometry x="70" y="555" width="60" height="30" as="geometry"/>
                </mxCell>
                <mxCell id="NHu5QGEOyZsgcXKkyV4h-43" value="1:M" style="text;html=1;strokeColor=none;fillColor=none;align=center;verticalAlign=middle;whiteSpace=wrap;rounded=0;" parent="1" vertex="1">
                    <mxGeometry x="70" y="420" width="60" height="30" as="geometry"/>
                </mxCell>
                <mxCell id="NHu5QGEOyZsgcXKkyV4h-47" value="1:1" style="text;html=1;strokeColor=none;fillColor=none;align=center;verticalAlign=middle;whiteSpace=wrap;rounded=0;" parent="1" vertex="1">
                    <mxGeometry x="70" y="745" width="60" height="30" as="geometry"/>
                </mxCell>
                <mxCell id="NHu5QGEOyZsgcXKkyV4h-48" value="N:M" style="text;html=1;strokeColor=none;fillColor=none;align=center;verticalAlign=middle;whiteSpace=wrap;rounded=0;" parent="1" vertex="1">
                    <mxGeometry x="390" y="905" width="60" height="30" as="geometry"/>
                </mxCell>
                <mxCell id="NHu5QGEOyZsgcXKkyV4h-49" value="N:M" style="text;html=1;strokeColor=none;fillColor=none;align=center;verticalAlign=middle;whiteSpace=wrap;rounded=0;" parent="1" vertex="1">
                    <mxGeometry x="320" y="715" width="60" height="30" as="geometry"/>
                </mxCell>
                <mxCell id="NHu5QGEOyZsgcXKkyV4h-50" value="N:M" style="text;html=1;strokeColor=none;fillColor=none;align=center;verticalAlign=middle;whiteSpace=wrap;rounded=0;" parent="1" vertex="1">
                    <mxGeometry x="530" y="720" width="60" height="30" as="geometry"/>
                </mxCell>
                <mxCell id="NHu5QGEOyZsgcXKkyV4h-51" value="N:M" style="text;html=1;strokeColor=none;fillColor=none;align=center;verticalAlign=middle;whiteSpace=wrap;rounded=0;" parent="1" vertex="1">
                    <mxGeometry x="390" y="495" width="60" height="30" as="geometry"/>
                </mxCell>
                <mxCell id="NHu5QGEOyZsgcXKkyV4h-52" value="1:M" style="text;html=1;strokeColor=none;fillColor=none;align=center;verticalAlign=middle;whiteSpace=wrap;rounded=0;" parent="1" vertex="1">
                    <mxGeometry x="160" y="360" width="60" height="30" as="geometry"/>
                </mxCell>
                <mxCell id="NHu5QGEOyZsgcXKkyV4h-53" value="1:M" style="text;html=1;strokeColor=none;fillColor=none;align=center;verticalAlign=middle;whiteSpace=wrap;rounded=0;" parent="1" vertex="1">
                    <mxGeometry x="370" y="830" width="60" height="30" as="geometry"/>
                </mxCell>
                <mxCell id="NHu5QGEOyZsgcXKkyV4h-54" value="1:M" style="text;html=1;strokeColor=none;fillColor=none;align=center;verticalAlign=middle;whiteSpace=wrap;rounded=0;" parent="1" vertex="1">
                    <mxGeometry x="490" y="770" width="60" height="30" as="geometry"/>
                </mxCell>
                <mxCell id="NHu5QGEOyZsgcXKkyV4h-55" value="1:M" style="text;html=1;strokeColor=none;fillColor=none;align=center;verticalAlign=middle;whiteSpace=wrap;rounded=0;" parent="1" vertex="1">
                    <mxGeometry x="490" y="670" width="60" height="30" as="geometry"/>
                </mxCell>
                <mxCell id="NHu5QGEOyZsgcXKkyV4h-57" value="1:M" style="text;html=1;strokeColor=none;fillColor=none;align=center;verticalAlign=middle;whiteSpace=wrap;rounded=0;" parent="1" vertex="1">
                    <mxGeometry x="490" y="960" width="60" height="30" as="geometry"/>
                </mxCell>
                <mxCell id="NHu5QGEOyZsgcXKkyV4h-58" value="1:M" style="text;html=1;strokeColor=none;fillColor=none;align=center;verticalAlign=middle;whiteSpace=wrap;rounded=0;" parent="1" vertex="1">
                    <mxGeometry x="490" y="860" width="60" height="30" as="geometry"/>
                </mxCell>
            </root>
        </mxGraphModel>
    </diagram>
</mxfile>